<svg width="70" height="70" viewBox="0 0 70 70" fill="none" xmlns="http://www.w3.org/2000/svg">
<path d="M54.1936 10.1613C54.1936 10.7834 54.6994 11.2903 55.3226 11.2903H57.5806C59.4481 11.2903 60.9677 12.81 60.9677 14.6774C60.9677 16.5448 59.4481 18.0645 57.5806 18.0645V20.3226H55.3226V18.0645C53.4552 18.0645 51.9355 16.5448 51.9355 14.6774H54.1936C54.1936 15.2995 54.6994 15.8065 55.3226 15.8065H57.5806C57.8713 15.7934 58.1458 15.6688 58.3469 15.4585C58.5481 15.2482 58.6603 14.9684 58.6603 14.6774C58.6603 14.3864 58.5481 14.1066 58.3469 13.8963C58.1458 13.686 57.8713 13.5614 57.5806 13.5484H55.3226C53.4552 13.5484 51.9355 12.0287 51.9355 10.1613C51.9355 8.29387 53.4552 6.77419 55.3226 6.77419V4.51613H57.5806V6.77419C59.4481 6.77419 60.9677 8.29387 60.9677 10.1613H58.7097C58.7097 9.53919 58.2039 9.03226 57.5806 9.03226H55.3226C54.6994 9.03226 54.1936 9.53919 54.1936 10.1613ZM70 3.3871V21.4516C70 23.319 68.4803 24.8387 66.6129 24.8387H60.5365L59.0958 27.7211C58.5911 28.7282 57.5784 29.3548 56.4516 29.3548C55.3248 29.3548 54.3121 28.7282 53.8074 27.7211L52.3668 24.8387H46.2903C44.4229 24.8387 42.9032 23.319 42.9032 21.4516V3.3871C42.9032 1.51968 44.4229 0 46.2903 0H66.6129C68.4803 0 70 1.51968 70 3.3871ZM67.7419 3.3871C67.7419 2.765 67.2361 2.25806 66.6129 2.25806H46.2903C45.6671 2.25806 45.1613 2.765 45.1613 3.3871V21.4516C45.1613 22.0737 45.6671 22.5806 46.2903 22.5806H53.7623L55.8273 26.7106C56.0655 27.1871 56.8377 27.1871 57.0748 26.7106L59.141 22.5806H66.6129C67.2361 22.5806 67.7419 22.0737 67.7419 21.4516V3.3871ZM18.0645 39.5161C14.9518 39.5161 12.4194 36.9837 12.4194 33.871V32.7419H23.7097V33.871C23.7097 36.9837 21.1773 39.5161 18.0645 39.5161ZM21.2585 35H14.8705C15.3368 36.3142 16.5923 37.2581 18.0645 37.2581C19.5368 37.2581 20.7923 36.3142 21.2585 35ZM14.6774 28.2258H16.9355C16.9355 25.7352 14.91 23.7097 12.4194 23.7097C9.92871 23.7097 7.90323 25.7352 7.90323 28.2258H10.1613C10.1613 26.9805 11.174 25.9677 12.4194 25.9677C13.6647 25.9677 14.6774 26.9805 14.6774 28.2258ZM23.7097 25.9677C24.955 25.9677 25.9677 26.9805 25.9677 28.2258H28.2258C28.2258 25.7352 26.2003 23.7097 23.7097 23.7097C21.219 23.7097 19.1935 25.7352 19.1935 28.2258H21.4516C21.4516 26.9805 22.4644 25.9677 23.7097 25.9677ZM67.7419 63.2258H70V70H0V63.2258H4.51613V55.3226C4.51613 50.2498 7.32177 45.8263 11.4597 43.505C10.3084 43.1236 9.23547 42.5372 8.29274 41.7742H6.77419C3.03823 41.7742 0 38.736 0 35V21.4516C0 11.4913 8.10419 3.3871 18.0645 3.3871C28.0248 3.3871 36.129 11.4913 36.129 21.4516V35C36.129 38.736 33.0908 41.7742 29.3548 41.7742H27.8239C26.8865 42.5309 25.8217 43.1143 24.6795 43.4971C26.4124 44.4759 27.9078 45.8252 29.059 47.4487C29.1584 47.4431 29.2532 47.4194 29.3548 47.4194H36.129C38.6197 47.4194 40.6452 49.4448 40.6452 51.9355V54.1936H48.5484V49.6774H45.1613C43.916 49.6774 42.9032 48.6647 42.9032 47.4194V40.6452C42.9032 39.3998 43.916 38.3871 45.1613 38.3871H63.2258C64.4711 38.3871 65.4839 39.3998 65.4839 40.6452V47.4194C65.4839 48.6647 64.4711 49.6774 63.2258 49.6774H59.8387V54.1936H64.3548C66.2223 54.1936 67.7419 55.7132 67.7419 57.5806V63.2258ZM45.1613 47.4194H63.2269L63.2258 40.6452H45.1613V47.4194ZM50.8064 54.1936H57.5806V49.6774H50.8064V54.1936ZM31.6129 60.9677V56.4516H25.9677C25.3445 56.4516 24.8387 56.9585 24.8387 57.5806V63.2258H65.4839V57.5806C65.4839 56.9585 64.9781 56.4516 64.3548 56.4516H40.6452V60.9677H31.6129ZM24.8387 54.1936H15.8065V58.7097H22.5806V57.5806C22.5806 56.1106 23.5279 54.8687 24.8387 54.4013V54.1936ZM33.2647 49.6774C33.663 50.3632 33.8722 51.1424 33.871 51.9355V58.7097H38.3871V51.9355C38.3871 50.6902 37.3744 49.6774 36.129 49.6774H33.2647ZM29.3548 49.6774C28.1095 49.6774 27.0968 50.6902 27.0968 51.9355V54.1936H31.6129V51.9355C31.6129 50.6902 30.6002 49.6774 29.3548 49.6774ZM22.5806 44.9874V46.2903C22.5806 48.1577 21.061 49.6774 19.1935 49.6774H16.9355C15.0681 49.6774 13.5484 48.1577 13.5484 46.2903V44.9818C12.7466 45.3359 11.9888 45.7822 11.2903 46.3118V63.2258H22.5806V60.9677H13.5484V51.9355H24.8387C24.8387 50.3853 25.6245 49.0158 26.819 48.2018C25.6841 46.8063 24.2305 45.7039 22.5806 44.9874ZM15.8065 44.2603V46.2903C15.8065 46.9124 16.3123 47.4194 16.9355 47.4194H19.1935C19.8168 47.4194 20.3226 46.9124 20.3226 46.2903V44.2795C19.58 44.1218 18.8236 44.039 18.0645 44.0323C17.2911 44.0323 16.5358 44.1113 15.8065 44.2603ZM6.18823 39.4574C5.0927 37.8007 4.51099 35.8572 4.51613 33.871V21.5905C4.51492 20.3311 4.93539 19.1075 5.71051 18.1149C6.48563 17.1222 7.57076 16.4177 8.7929 16.1135L9.12371 16.0311C9.3333 15.012 9.88782 14.0964 10.6938 13.4385C11.4998 12.7805 12.508 12.4206 13.5484 12.4194H14.6774V14.6774H13.5484C12.3031 14.6774 11.2903 15.6902 11.2903 16.9355C11.2903 18.1808 12.3031 19.1935 13.5484 19.1935H29.2397C29.0149 18.1001 28.4634 17.1007 27.6582 16.3275C26.853 15.5543 25.832 15.0439 24.7303 14.8637L23.5245 14.6627L23.8948 12.4352L25.1006 12.6361C26.9225 12.9345 28.5785 13.872 29.7718 15.2805C30.9652 16.689 31.6179 18.4765 31.6129 20.3226V21.4516L31.6118 33.871C31.6127 35.858 31.0275 37.8013 29.9295 39.4574C32.1469 39.1718 33.871 37.2931 33.871 35V21.4516C33.871 12.7355 26.7806 5.64516 18.0645 5.64516C9.34839 5.64516 2.25806 12.7355 2.25806 21.4516V35C2.25806 37.2897 3.97645 39.1661 6.18823 39.4574ZM21.4516 41.7742C25.8085 41.7742 29.3537 38.229 29.3537 33.871L29.3548 21.4516H13.5484C11.5466 21.4516 9.86548 20.134 9.27387 18.3276C8.55635 18.5208 7.92256 18.9452 7.47066 19.5351C7.01876 20.125 6.77396 20.8474 6.77419 21.5905V33.871C6.77419 35.9823 7.59613 37.9671 9.08871 39.4597C10.5813 40.9523 12.5661 41.7742 14.6774 41.7742H21.4516ZM6.77419 63.2258H9.03226V48.5777C7.56758 50.5214 6.775 52.8888 6.77419 55.3226V63.2258ZM67.7419 65.4839H2.25806V67.7419H67.7419V65.4839ZM59.8387 42.9032H48.5484C48.2489 42.9032 47.9618 43.0222 47.75 43.2339C47.5383 43.4456 47.4194 43.7328 47.4194 44.0323C47.4194 44.3317 47.5383 44.6189 47.75 44.8306C47.9618 45.0423 48.2489 45.1613 48.5484 45.1613H59.8387C60.1381 45.1613 60.4253 45.0423 60.6371 44.8306C60.8488 44.6189 60.9677 44.3317 60.9677 44.0323C60.9677 43.7328 60.8488 43.4456 60.6371 43.2339C60.4253 43.0222 60.1381 42.9032 59.8387 42.9032Z" fill="url(#paint0_linear_4414_31930)"/>
<defs>
<linearGradient id="paint0_linear_4414_31930" x1="65.9968" y1="6.77531" x2="8.27154" y2="88.7794" gradientUnits="userSpaceOnUse">
<stop offset="0.01" stop-color="#37EBBA"/>
<stop offset="0.68" stop-color="#2FA9C5"/>
<stop offset="1" stop-color="#2C8FC9"/>
</linearGradient>
</defs>
</svg>
