<svg xmlns="http://www.w3.org/2000/svg" xmlns:xlink="http://www.w3.org/1999/xlink" viewBox="0 0 386.78 81.02"><defs><style>.cls-1{fill:#f2f2f2;}.cls-2{fill:url(#linear-gradient);}</style><linearGradient id="linear-gradient" x1="61.15" y1="7.84" x2="-9.22" y2="87.89" gradientUnits="userSpaceOnUse"><stop offset="0" stop-color="#37ecba"/><stop offset="0.01" stop-color="#37ebba"/><stop offset="0.68" stop-color="#2fa9c5"/><stop offset="1" stop-color="#2c8fc9"/></linearGradient></defs><g id="Слой_2" data-name="Слой 2"><g id="Layer_1" data-name="Layer 1"><path class="cls-1" d="M98.44,57.83c5.18,0,10-2,10-7,0-11.35-24.52-4.69-24.52-21,0-8.54,6.7-13.26,15.29-13.26a25,25,0,0,1,14.94,4.94l-3,4.63a20.34,20.34,0,0,0-11.64-3.86c-4.84,0-9.25,2.31-9.25,7,0,11.14,24.62,4.31,24.62,20.92,0,9-7.29,13.46-16.26,13.46A25.61,25.61,0,0,1,82.58,58l3-4.72A20.71,20.71,0,0,0,98.44,57.83Z"/><path class="cls-1" d="M148.64,63.62c-3.52,0-7.13-1.54-7.13-5l0,0c-2.18,3.36-6.44,5-10.83,5-6.29,0-11.5-3.36-11.5-9.74,0-6.21,4.9-10.51,14.11-10.51a40.47,40.47,0,0,1,7.8.83V42.26c0-5-3.42-6.82-8-6.82a20.77,20.77,0,0,0-9.49,2.43l-2-4.38C125,31,129.77,30.11,134,30.11c8.51,0,13.28,3.71,13.28,11.12V54.41c0,2.43.47,3.74,2.13,4.59ZM133.76,48.21c-5.95,0-8.48,2-8.48,5.29,0,3.58,3,5,6,5,4.41,0,9.74-2.94,9.74-7.21V49A38.35,38.35,0,0,0,133.76,48.21Z"/><path class="cls-1" d="M155.42,16.29l6.28-1.24V53.94c0,2.43.43,3.71,2.25,4.64l-.83,5c-4,0-7.7-2.37-7.7-7.43Z"/><path class="cls-1" d="M184.33,63.62c-9,0-16.42-5.87-16.42-16.54,0-10.39,7-17,16-17,9.24,0,15.11,7,15.11,16.08a21,21,0,0,1-.16,2.65H174.31c.57,5.87,4.59,9.37,10.32,9.37A15.81,15.81,0,0,0,194,55.06l2.91,4A18.73,18.73,0,0,1,184.33,63.62Zm8.42-19.42c-.36-4.65-3.36-8.68-8.82-8.68-5.07,0-8.77,3.5-9.52,8.68Z"/><path class="cls-1" d="M205.09,63V16.29l6.32-1.24V35h0c2.37-3.32,6.4-4.86,10.59-4.86,9.09,0,15.12,7.23,15.12,16.89,0,10.24-6.76,16.62-15,16.62a13.64,13.64,0,0,1-11.24-5.51L210.33,63Zm25.69-16.09c0-6.81-4.05-11.18-9.74-11.18-5.87,0-9.81,4.62-9.81,11.07,0,5.84,3.26,11.28,9.65,11.28C226.43,58.05,230.78,54,230.78,46.88Z"/><path class="cls-1" d="M243.51,30.76h5.24l.61,5,0,0c1.86-3.93,4.52-5.69,8.89-5.69a17.33,17.33,0,0,1,4.29.55l-1,5.83a12,12,0,0,0-3.64-.57c-6.7,0-8.18,5.75-8.18,12.41V63h-6.28Z"/><path class="cls-1" d="M265.75,20.21a4.15,4.15,0,1,1,4.15,4.15A4.15,4.15,0,0,1,265.75,20.21Zm1,10.55H273V63h-6.31Z"/><path class="cls-1" d="M305.25,58.11A13.64,13.64,0,0,1,294,63.62c-8.24,0-15-6.38-15-16.62,0-9.66,6-16.89,15.12-16.89,4.19,0,8.22,1.54,10.59,4.86h0V16.29l6.32-1.24V63h-5.24Zm-.32-11.34c0-6.45-3.93-11.07-9.8-11.07-5.69,0-9.74,4.37-9.74,11.18,0,7.1,4.35,11.17,9.9,11.17C301.68,58.05,304.93,52.61,304.93,46.77Z"/><path class="cls-1" d="M349.39,61.55c0,10-6.78,15.61-16.38,15.61a19.85,19.85,0,0,1-13.24-4.71l3-4.15a16.53,16.53,0,0,0,9.88,3.26c6,0,10.42-3.24,10.42-11.1V57.61h0c-2.3,3.34-6.66,5-10.89,5-8.24,0-14.72-6.24-14.72-16.14,0-10.49,7.25-16.34,15.09-16.34,4.33,0,8.6,1.78,10.93,5.35l.57-4.7h5.36Zm-6.25-15.26c0-6.09-3.61-10.59-9.58-10.59s-9.76,4.49-9.76,10.73S327.67,57,333.52,57C339.69,57,343.14,52.24,343.14,46.29Z"/><path class="cls-1" d="M372.12,63.62c-9,0-16.42-5.87-16.42-16.54,0-10.39,7-17,16-17,9.24,0,15.11,7,15.11,16.08a21,21,0,0,1-.16,2.65H362.1c.57,5.87,4.59,9.37,10.32,9.37a15.81,15.81,0,0,0,9.36-3.15l2.91,4A18.73,18.73,0,0,1,372.12,63.62Zm8.42-19.42c-.36-4.65-3.36-8.68-8.82-8.68-5.07,0-8.77,3.5-9.52,8.68Z"/><path class="cls-2" d="M60,53.39,45.21,68.22A43.68,43.68,0,0,1,14.33,81L47.75,47.71a5.81,5.81,0,0,0-4.1-9.92H32.44l3.26-3.26s.22-.23.62-.61C38,32.28,43,27.79,47.66,26.73a13.55,13.55,0,0,1,14.41,5.78.47.47,0,0,0,.06.09c.18.28.35.56.52.86l.06.11a5.45,5.45,0,0,1,.29.53c0,.09.09.18.13.27a1.11,1.11,0,0,1,.07.16A16.43,16.43,0,0,1,60,53.39ZM1.67,46.49a1.11,1.11,0,0,0,.07.16c0,.09.08.18.13.27a5.45,5.45,0,0,0,.29.53l.06.11c.17.3.34.58.52.86a.47.47,0,0,1,.06.09,13.55,13.55,0,0,0,14.41,5.78c4.62-1.06,9.63-5.55,11.34-7.19.4-.38.62-.61.62-.61l3.26-3.26H21.22a5.81,5.81,0,0,1-4.1-9.92L50.54,0A43.68,43.68,0,0,0,19.66,12.8L4.83,27.63A16.43,16.43,0,0,0,1.67,46.49Z"/></g></g></svg>