<svg width="161" height="40" viewBox="0 0 161 40" fill="none" xmlns="http://www.w3.org/2000/svg">
<g filter="url(#filter0_b_4407_32032)">
<path d="M37.0033 26.3654L27.8823 33.6889C22.8302 37.7309 15.9804 40.0009 8.83875 40L29.4487 23.5605C29.9499 23.1595 30.2913 22.6486 30.43 22.0923C30.5686 21.536 30.4981 20.9592 30.2275 20.4349C29.9569 19.9107 29.4983 19.4624 28.9097 19.1468C28.321 18.8312 27.6287 18.6624 26.9203 18.6617H20.0071L22.0175 17.0519C22.0175 17.0519 22.1532 16.9383 22.3999 16.7506C23.4359 15.9407 26.5194 13.7235 29.3932 13.2C31.0612 12.8892 32.8082 12.9964 34.3977 13.5069C35.9871 14.0174 37.3423 14.9067 38.2798 16.0543C38.29 16.0702 38.3024 16.0851 38.3168 16.0988C38.4278 16.237 38.5327 16.3753 38.6375 16.5235L38.6745 16.5778C38.7401 16.6623 38.7998 16.7497 38.8533 16.8395C38.8533 16.8839 38.9088 16.9284 38.9335 16.9728C38.9505 16.9982 38.9649 17.0246 38.9767 17.0519C39.9032 18.5749 40.2111 20.292 39.8572 21.9623C39.5033 23.6326 38.5053 25.1723 37.0033 26.3654ZM1.03138 22.958C1.04316 22.9852 1.05759 23.0117 1.07455 23.037C1.07455 23.0815 1.12389 23.1259 1.15472 23.1704C1.20825 23.2602 1.26795 23.3476 1.33356 23.4321L1.37056 23.4864C1.4754 23.6346 1.58024 23.7728 1.69125 23.9111C1.70567 23.9247 1.71809 23.9396 1.72825 23.9556C2.66573 25.1032 4.02093 25.9925 5.61039 26.503C7.19985 27.0135 8.94683 27.1206 10.6148 26.8099C13.464 26.2864 16.5536 24.0691 17.6082 23.2593C17.8548 23.0716 17.9905 22.958 17.9905 22.958L20.0009 21.3481H13.0878C12.3794 21.3475 11.6871 21.1787 11.0984 20.8631C10.5097 20.5475 10.0511 20.0992 9.78052 19.5749C9.50992 19.0507 9.43948 18.4739 9.5781 17.9176C9.71673 17.3613 10.0582 16.8503 10.5593 16.4494L31.1693 0C24.0259 0.00168265 17.1758 2.27537 12.1257 6.32099L2.98014 13.6444C1.48213 14.8398 0.488777 16.3806 0.139306 18.0508C-0.210164 19.721 0.101768 21.4369 1.03138 22.958Z" fill="url(#paint0_linear_4407_32032)"/>
</g>
<path d="M55.5586 23.5703C55.5586 23.2422 55.5078 22.9492 55.4062 22.6914C55.3125 22.4258 55.1367 22.1875 54.8789 21.9766C54.6289 21.7578 54.2734 21.5469 53.8125 21.3438C53.3594 21.1328 52.7734 20.9141 52.0547 20.6875C51.2578 20.4375 50.5156 20.1562 49.8281 19.8438C49.1406 19.5312 48.5352 19.168 48.0117 18.7539C47.4961 18.3398 47.0938 17.8633 46.8047 17.3242C46.5156 16.7773 46.3711 16.1445 46.3711 15.4258C46.3711 14.7227 46.5195 14.082 46.8164 13.5039C47.1211 12.9258 47.5508 12.4297 48.1055 12.0156C48.6602 11.5938 49.3125 11.2695 50.0625 11.043C50.8203 10.8164 51.6562 10.7031 52.5703 10.7031C53.8359 10.7031 54.9297 10.9336 55.8516 11.3945C56.7812 11.8555 57.5 12.4805 58.0078 13.2695C58.5156 14.0586 58.7695 14.9453 58.7695 15.9297H55.5586C55.5586 15.3984 55.4453 14.9297 55.2188 14.5234C55 14.1172 54.6641 13.7969 54.2109 13.5625C53.7656 13.3281 53.2031 13.2109 52.5234 13.2109C51.8672 13.2109 51.3203 13.3086 50.8828 13.5039C50.4531 13.6992 50.1289 13.9648 49.9102 14.3008C49.6992 14.6367 49.5938 15.0117 49.5938 15.4258C49.5938 15.7383 49.668 16.0195 49.8164 16.2695C49.9648 16.5117 50.1875 16.7422 50.4844 16.9609C50.7812 17.1719 51.1484 17.3711 51.5859 17.5586C52.0312 17.7383 52.5469 17.918 53.1328 18.0977C54.0703 18.3789 54.8906 18.6914 55.5938 19.0352C56.3047 19.3789 56.8945 19.7695 57.3633 20.207C57.8398 20.6445 58.1953 21.1367 58.4297 21.6836C58.6719 22.2305 58.793 22.8516 58.793 23.5469C58.793 24.2812 58.6484 24.9375 58.3594 25.5156C58.0703 26.0938 57.6562 26.5859 57.1172 26.9922C56.5781 27.3984 55.9297 27.707 55.1719 27.918C54.4219 28.1289 53.582 28.2344 52.6523 28.2344C51.8242 28.2344 51.0039 28.125 50.1914 27.9062C49.3867 27.6797 48.6562 27.3438 48 26.8984C47.3438 26.4453 46.8203 25.875 46.4297 25.1875C46.0391 24.4922 45.8438 23.6797 45.8438 22.75H49.0781C49.0781 23.2891 49.1641 23.75 49.3359 24.1328C49.5156 24.5078 49.7656 24.8164 50.0859 25.0586C50.4141 25.293 50.7969 25.4648 51.2344 25.5742C51.6719 25.6836 52.1445 25.7383 52.6523 25.7383C53.3086 25.7383 53.8477 25.6484 54.2695 25.4688C54.6992 25.2812 55.0195 25.0234 55.2305 24.6953C55.4492 24.3672 55.5586 23.9922 55.5586 23.5703ZM68.0273 25.3047V19.457C68.0273 19.0273 67.9531 18.6562 67.8047 18.3438C67.6562 18.0312 67.4297 17.7891 67.125 17.6172C66.8203 17.4453 66.4336 17.3594 65.9648 17.3594C65.5508 17.3594 65.1875 17.4297 64.875 17.5703C64.5703 17.7109 64.3359 17.9102 64.1719 18.168C64.0078 18.418 63.9258 18.707 63.9258 19.0352H60.8203C60.8203 18.5117 60.9453 18.0156 61.1953 17.5469C61.4453 17.0703 61.8008 16.6484 62.2617 16.2812C62.7305 15.9062 63.2891 15.6133 63.9375 15.4023C64.5938 15.1914 65.3281 15.0859 66.1406 15.0859C67.1016 15.0859 67.957 15.25 68.707 15.5781C69.4648 15.8984 70.0586 16.3828 70.4883 17.0312C70.9258 17.6797 71.1445 18.4961 71.1445 19.4805V25.0117C71.1445 25.6445 71.1836 26.1875 71.2617 26.6406C71.3477 27.0859 71.4727 27.4727 71.6367 27.8008V28H68.4844C68.3359 27.6797 68.2227 27.2734 68.1445 26.7812C68.0664 26.2812 68.0273 25.7891 68.0273 25.3047ZM68.4609 20.2773L68.4844 22.1172H66.5273C66.043 22.1172 65.6172 22.168 65.25 22.2695C64.8828 22.3633 64.582 22.5039 64.3477 22.6914C64.1133 22.8711 63.9375 23.0898 63.8203 23.3477C63.7031 23.5977 63.6445 23.8828 63.6445 24.2031C63.6445 24.5156 63.7148 24.7969 63.8555 25.0469C64.0039 25.2969 64.2148 25.4961 64.4883 25.6445C64.7695 25.7852 65.0977 25.8555 65.4727 25.8555C66.0195 25.8555 66.4961 25.7461 66.9023 25.5273C67.3086 25.3008 67.625 25.0273 67.8516 24.707C68.0781 24.3867 68.1992 24.082 68.2148 23.793L69.1055 25.1289C68.9961 25.4492 68.832 25.7891 68.6133 26.1484C68.3945 26.5078 68.1133 26.8438 67.7695 27.1562C67.4258 27.4688 67.0117 27.7266 66.5273 27.9297C66.043 28.1328 65.4805 28.2344 64.8398 28.2344C64.0195 28.2344 63.2852 28.0703 62.6367 27.7422C61.9883 27.4141 61.4766 26.9648 61.1016 26.3945C60.7266 25.8242 60.5391 25.1758 60.5391 24.4492C60.5391 23.7773 60.6641 23.1836 60.9141 22.668C61.1641 22.1523 61.5352 21.7188 62.0273 21.3672C62.5195 21.0078 63.1289 20.7383 63.8555 20.5586C64.5898 20.3711 65.4297 20.2773 66.375 20.2773H68.4609ZM77.2148 10V28H74.1094V10H77.2148ZM85.8633 28.2344C84.9023 28.2344 84.0391 28.0781 83.2734 27.7656C82.5078 27.4531 81.8555 27.0195 81.3164 26.4648C80.7852 25.9023 80.375 25.25 80.0859 24.5078C79.8047 23.7578 79.6641 22.9531 79.6641 22.0938V21.625C79.6641 20.6484 79.8047 19.7617 80.0859 18.9648C80.3672 18.1602 80.7656 17.4688 81.2812 16.8906C81.7969 16.3125 82.4141 15.8672 83.1328 15.5547C83.8516 15.2422 84.6445 15.0859 85.5117 15.0859C86.4102 15.0859 87.2031 15.2383 87.8906 15.543C88.5781 15.8398 89.1523 16.2617 89.6133 16.8086C90.0742 17.3555 90.4219 18.0117 90.6562 18.7773C90.8906 19.5352 91.0078 20.375 91.0078 21.2969V22.5977H81.0703V20.4648H87.9609V20.2305C87.9453 19.7383 87.8516 19.2891 87.6797 18.8828C87.5078 18.4688 87.2422 18.1406 86.8828 17.8984C86.5234 17.6484 86.0586 17.5234 85.4883 17.5234C85.0273 17.5234 84.625 17.625 84.2812 17.8281C83.9453 18.0234 83.6641 18.3047 83.4375 18.6719C83.2188 19.0312 83.0547 19.4609 82.9453 19.9609C82.8359 20.4609 82.7812 21.0156 82.7812 21.625V22.0938C82.7812 22.625 82.8516 23.1172 82.9922 23.5703C83.1406 24.0234 83.3555 24.418 83.6367 24.7539C83.9258 25.082 84.2695 25.3398 84.668 25.5273C85.0742 25.707 85.5352 25.7969 86.0508 25.7969C86.6992 25.7969 87.2852 25.6719 87.8086 25.4219C88.3398 25.1641 88.8008 24.7852 89.1914 24.2852L90.75 25.9023C90.4844 26.293 90.125 26.668 89.6719 27.0273C89.2266 27.3867 88.6875 27.6797 88.0547 27.9062C87.4219 28.125 86.6914 28.2344 85.8633 28.2344ZM93.0703 10H96.1758V25.1992L95.8711 28H93.0703V10ZM104.332 21.5312V21.7773C104.332 22.7227 104.227 23.5898 104.016 24.3789C103.812 25.168 103.504 25.8516 103.09 26.4297C102.676 27 102.16 27.4453 101.543 27.7656C100.934 28.0781 100.219 28.2344 99.3984 28.2344C98.6172 28.2344 97.9375 28.082 97.3594 27.7773C96.7891 27.4727 96.3086 27.043 95.918 26.4883C95.5273 25.9258 95.2148 25.2656 94.9805 24.5078C94.7461 23.7422 94.5703 22.9062 94.4531 22V21.332C94.5703 20.418 94.7461 19.582 94.9805 18.8242C95.2148 18.0664 95.5273 17.4062 95.918 16.8438C96.3086 16.2812 96.7891 15.8477 97.3594 15.543C97.9297 15.2383 98.6016 15.0859 99.375 15.0859C100.203 15.0859 100.926 15.2461 101.543 15.5664C102.168 15.8789 102.684 16.3242 103.09 16.9023C103.504 17.4727 103.812 18.1523 104.016 18.9414C104.227 19.7227 104.332 20.5859 104.332 21.5312ZM101.227 21.7773V21.5312C101.227 20.9922 101.184 20.4844 101.098 20.0078C101.012 19.5234 100.871 19.0977 100.676 18.7305C100.48 18.3633 100.215 18.0742 99.8789 17.8633C99.543 17.6523 99.1211 17.5469 98.6133 17.5469C98.1289 17.5469 97.7148 17.6289 97.3711 17.793C97.0352 17.957 96.7539 18.1836 96.5273 18.4727C96.3086 18.7617 96.1367 19.1016 96.0117 19.4922C95.8945 19.8828 95.8164 20.3047 95.7773 20.7578V22.5859C95.832 23.1875 95.9609 23.7305 96.1641 24.2148C96.3672 24.6914 96.668 25.0703 97.0664 25.3516C97.4727 25.6328 97.9961 25.7734 98.6367 25.7734C99.1367 25.7734 99.5547 25.6758 99.8906 25.4805C100.227 25.2773 100.492 24.9961 100.688 24.6367C100.883 24.2695 101.02 23.8438 101.098 23.3594C101.184 22.875 101.227 22.3477 101.227 21.7773ZM109.676 17.9102V28H106.582V15.3203H109.512L109.676 17.9102ZM113.531 15.2383L113.484 18.1211C113.312 18.0898 113.117 18.0664 112.898 18.0508C112.688 18.0352 112.488 18.0273 112.301 18.0273C111.824 18.0273 111.406 18.0938 111.047 18.2266C110.688 18.3516 110.387 18.5352 110.145 18.7773C109.91 19.0195 109.73 19.3164 109.605 19.668C109.48 20.0117 109.41 20.4023 109.395 20.8398L108.727 20.7578C108.727 19.9531 108.809 19.207 108.973 18.5195C109.137 17.832 109.375 17.2305 109.688 16.7148C110 16.1992 110.391 15.8008 110.859 15.5195C111.336 15.2305 111.883 15.0859 112.5 15.0859C112.672 15.0859 112.855 15.1016 113.051 15.1328C113.254 15.1562 113.414 15.1914 113.531 15.2383ZM118.512 15.3203V28H115.406V15.3203H118.512ZM115.195 12.0039C115.195 11.543 115.352 11.1602 115.664 10.8555C115.984 10.5508 116.414 10.3984 116.953 10.3984C117.492 10.3984 117.918 10.5508 118.23 10.8555C118.551 11.1602 118.711 11.543 118.711 12.0039C118.711 12.457 118.551 12.8359 118.23 13.1406C117.918 13.4453 117.492 13.5977 116.953 13.5977C116.414 13.5977 115.984 13.4453 115.664 13.1406C115.352 12.8359 115.195 12.457 115.195 12.0039ZM129.07 25.3047V10H132.188V28H129.375L129.07 25.3047ZM120.926 21.8125V21.5664C120.926 20.5977 121.035 19.7188 121.254 18.9297C121.48 18.1328 121.809 17.4492 122.238 16.8789C122.668 16.3086 123.188 15.8672 123.797 15.5547C124.414 15.2422 125.113 15.0859 125.895 15.0859C126.652 15.0859 127.312 15.2383 127.875 15.543C128.445 15.8477 128.93 16.2812 129.328 16.8438C129.734 17.4062 130.059 18.0742 130.301 18.8477C130.543 19.6133 130.719 20.457 130.828 21.3789V22.0469C130.719 22.9453 130.543 23.7695 130.301 24.5195C130.059 25.2695 129.734 25.9258 129.328 26.4883C128.93 27.043 128.445 27.4727 127.875 27.7773C127.305 28.082 126.637 28.2344 125.871 28.2344C125.098 28.2344 124.402 28.0742 123.785 27.7539C123.176 27.4336 122.656 26.9844 122.227 26.4062C121.805 25.8281 121.48 25.1484 121.254 24.3672C121.035 23.5859 120.926 22.7344 120.926 21.8125ZM124.031 21.5664V21.8125C124.031 22.3594 124.078 22.8711 124.172 23.3477C124.266 23.8242 124.418 24.2461 124.629 24.6133C124.84 24.9727 125.109 25.2539 125.438 25.457C125.773 25.6602 126.18 25.7617 126.656 25.7617C127.266 25.7617 127.766 25.6289 128.156 25.3633C128.555 25.0898 128.863 24.7188 129.082 24.25C129.301 23.7734 129.441 23.2383 129.504 22.6445V20.8047C129.473 20.3359 129.391 19.9023 129.258 19.5039C129.133 19.1055 128.953 18.7617 128.719 18.4727C128.492 18.1836 128.211 17.957 127.875 17.793C127.539 17.6289 127.141 17.5469 126.68 17.5469C126.203 17.5469 125.797 17.6523 125.461 17.8633C125.125 18.0664 124.852 18.3516 124.641 18.7188C124.43 19.0859 124.273 19.5117 124.172 19.9961C124.078 20.4805 124.031 21.0039 124.031 21.5664ZM143.051 15.3203H145.863V27.6133C145.863 28.7617 145.613 29.7344 145.113 30.5312C144.621 31.3359 143.93 31.9453 143.039 32.3594C142.148 32.7812 141.113 32.9922 139.934 32.9922C139.426 32.9922 138.875 32.9219 138.281 32.7812C137.695 32.6406 137.129 32.418 136.582 32.1133C136.043 31.8164 135.594 31.4297 135.234 30.9531L136.629 29.125C137.051 29.6172 137.527 29.9883 138.059 30.2383C138.59 30.4961 139.164 30.625 139.781 30.625C140.406 30.625 140.938 30.5078 141.375 30.2734C141.82 30.0469 142.16 29.7109 142.395 29.2656C142.637 28.8281 142.758 28.2891 142.758 27.6484V18.2148L143.051 15.3203ZM134.484 21.8125V21.5664C134.484 20.5977 134.602 19.7188 134.836 18.9297C135.07 18.1328 135.406 17.4492 135.844 16.8789C136.289 16.3086 136.824 15.8672 137.449 15.5547C138.082 15.2422 138.793 15.0859 139.582 15.0859C140.418 15.0859 141.121 15.2383 141.691 15.543C142.27 15.8477 142.746 16.2812 143.121 16.8438C143.504 17.4062 143.801 18.0742 144.012 18.8477C144.23 19.6133 144.398 20.457 144.516 21.3789V22.0469C144.406 22.9453 144.23 23.7695 143.988 24.5195C143.754 25.2695 143.441 25.9258 143.051 26.4883C142.66 27.043 142.176 27.4727 141.598 27.7773C141.02 28.082 140.34 28.2344 139.559 28.2344C138.777 28.2344 138.074 28.0742 137.449 27.7539C136.824 27.4336 136.289 26.9844 135.844 26.4062C135.406 25.8281 135.07 25.1484 134.836 24.3672C134.602 23.5859 134.484 22.7344 134.484 21.8125ZM137.578 21.5664V21.8125C137.578 22.3594 137.633 22.8711 137.742 23.3477C137.852 23.8242 138.02 24.2461 138.246 24.6133C138.473 24.9727 138.758 25.2539 139.102 25.457C139.445 25.6602 139.855 25.7617 140.332 25.7617C140.973 25.7617 141.496 25.6289 141.902 25.3633C142.316 25.0898 142.629 24.7188 142.84 24.25C143.059 23.7734 143.199 23.2383 143.262 22.6445V20.8047C143.223 20.3359 143.137 19.9023 143.004 19.5039C142.879 19.1055 142.703 18.7617 142.477 18.4727C142.25 18.1836 141.961 17.957 141.609 17.793C141.258 17.6289 140.84 17.5469 140.355 17.5469C139.887 17.5469 139.477 17.6523 139.125 17.8633C138.773 18.0664 138.484 18.3516 138.258 18.7188C138.031 19.0859 137.859 19.5117 137.742 19.9961C137.633 20.4805 137.578 21.0039 137.578 21.5664ZM154.348 28.2344C153.387 28.2344 152.523 28.0781 151.758 27.7656C150.992 27.4531 150.34 27.0195 149.801 26.4648C149.27 25.9023 148.859 25.25 148.57 24.5078C148.289 23.7578 148.148 22.9531 148.148 22.0938V21.625C148.148 20.6484 148.289 19.7617 148.57 18.9648C148.852 18.1602 149.25 17.4688 149.766 16.8906C150.281 16.3125 150.898 15.8672 151.617 15.5547C152.336 15.2422 153.129 15.0859 153.996 15.0859C154.895 15.0859 155.688 15.2383 156.375 15.543C157.062 15.8398 157.637 16.2617 158.098 16.8086C158.559 17.3555 158.906 18.0117 159.141 18.7773C159.375 19.5352 159.492 20.375 159.492 21.2969V22.5977H149.555V20.4648H156.445V20.2305C156.43 19.7383 156.336 19.2891 156.164 18.8828C155.992 18.4688 155.727 18.1406 155.367 17.8984C155.008 17.6484 154.543 17.5234 153.973 17.5234C153.512 17.5234 153.109 17.625 152.766 17.8281C152.43 18.0234 152.148 18.3047 151.922 18.6719C151.703 19.0312 151.539 19.4609 151.43 19.9609C151.32 20.4609 151.266 21.0156 151.266 21.625V22.0938C151.266 22.625 151.336 23.1172 151.477 23.5703C151.625 24.0234 151.84 24.418 152.121 24.7539C152.41 25.082 152.754 25.3398 153.152 25.5273C153.559 25.707 154.02 25.7969 154.535 25.7969C155.184 25.7969 155.77 25.6719 156.293 25.4219C156.824 25.1641 157.285 24.7852 157.676 24.2852L159.234 25.9023C158.969 26.293 158.609 26.668 158.156 27.0273C157.711 27.3867 157.172 27.6797 156.539 27.9062C155.906 28.125 155.176 28.2344 154.348 28.2344Z" fill="#101828"/>
<defs>
<filter id="filter0_b_4407_32032" x="-4" y="-4" width="48" height="48" filterUnits="userSpaceOnUse" color-interpolation-filters="sRGB">
<feFlood flood-opacity="0" result="BackgroundImageFix"/>
<feGaussianBlur in="BackgroundImageFix" stdDeviation="2"/>
<feComposite in2="SourceAlpha" operator="in" result="effect1_backgroundBlur_4407_32032"/>
<feBlend mode="normal" in="SourceGraphic" in2="effect1_backgroundBlur_4407_32032" result="shape"/>
</filter>
<linearGradient id="paint0_linear_4407_32032" x1="37.7125" y1="3.8716" x2="4.72659" y2="50.7311" gradientUnits="userSpaceOnUse">
<stop offset="0.01" stop-color="#37EBBA"/>
<stop offset="0.68" stop-color="#2FA9C5"/>
<stop offset="1" stop-color="#2C8FC9"/>
</linearGradient>
</defs>
</svg>
