<?xml version="1.0" encoding="UTF-8"?>
<svg width="28px" height="28px" viewBox="0 0 28 28" version="1.1" xmlns="http://www.w3.org/2000/svg" xmlns:xlink="http://www.w3.org/1999/xlink">
    <!-- Generator: sketchtool 48.2 (47327) - http://www.bohemiancoding.com/sketch -->
    <title>61DE8D8A-F1B0-4AF8-AF7B-D49409741422</title>
    <desc>Created with sketchtool.</desc>
    <defs></defs>
    <g id="RMC-2018-AB-registration-2" stroke="none" stroke-width="1" fill="none" fill-rule="evenodd" transform="translate(-1316.000000, -165.000000)">
        <g id="registrations-done" fill="#849BA6" fill-rule="nonzero">
            <g id="Group-18" transform="translate(1311.000000, 160.000000)">
                <g id="close-copy" transform="translate(5.000000, 5.000000)">
                    <path d="M14,13.0088989 L21.8036351,5.20526376 C22.0773202,4.93157875 22.5210512,4.93157875 22.7947362,5.20526376 C23.0684213,5.47894877 23.0684213,5.92267985 22.7947362,6.19636486 L14.9911011,14 L22.7947362,21.8036351 C23.0684213,22.0773202 23.0684213,22.5210512 22.7947362,22.7947362 C22.5210512,23.0684213 22.0773202,23.0684213 21.8036351,22.7947362 L14,14.9911011 L6.19636486,22.7947362 C5.92267985,23.0684213 5.47894877,23.0684213 5.20526376,22.7947362 C4.93157875,22.5210512 4.93157875,22.0773202 5.20526376,21.8036351 L13.0088989,14 L5.20526376,6.19636486 C4.93157875,5.92267985 4.93157875,5.47894877 5.20526376,5.20526376 C5.47894877,4.93157875 5.92267985,4.93157875 6.19636486,5.20526376 L14,13.0088989 Z" id="Combined-Shape"></path>
                </g>
            </g>
        </g>
    </g>
</svg>