<svg width="70" height="70" viewBox="0 0 70 70" fill="none" xmlns="http://www.w3.org/2000/svg">
<path d="M54.9556 46.1785C50.0085 46.1785 45.9833 50.2499 45.9833 55.2538C45.9833 60.2577 50.0085 64.3291 54.9556 64.3291C59.9027 64.3291 63.928 60.2577 63.928 55.2538C63.928 50.2499 59.9027 46.1785 54.9556 46.1785ZM54.9556 62.0603C51.2444 62.0603 48.2264 59.0076 48.2264 55.2538C48.2264 51.5 51.2444 48.4473 54.9556 48.4473C58.6668 48.4473 61.6849 51.5 61.6849 55.2538C61.6849 59.0076 58.6668 62.0603 54.9556 62.0603ZM54.9556 50.7161C52.4815 50.7161 50.4694 52.7513 50.4694 55.2538C50.4694 57.7563 52.4815 59.7914 54.9556 59.7914C57.4297 59.7914 59.4418 57.7563 59.4418 55.2538C59.4418 52.7513 57.4297 50.7161 54.9556 50.7161ZM54.9556 57.5226C53.7186 57.5226 52.7125 56.505 52.7125 55.2538C52.7125 54.0025 53.7186 52.985 54.9556 52.985C56.1927 52.985 57.1987 54.0025 57.1987 55.2538C57.1987 56.505 56.1927 57.5226 54.9556 57.5226ZM67.2679 49.7836L68.2055 47.7996L62.3264 41.853L60.3648 42.8013C60.1905 42.723 60.0144 42.6488 59.8366 42.579L59.1143 40.5076H55.9773C53.7366 37.9597 50.6276 36.3612 47.272 36.0316C43.9164 35.702 40.5614 36.6657 37.8779 38.7299C36.46 36.4898 34.5071 34.6469 32.1995 33.3712C29.8918 32.0956 27.3037 31.4284 24.674 31.4311C21.2896 31.4208 17.9934 32.5223 15.2813 34.5699C12.5692 36.6176 10.5878 39.5007 9.63518 42.7855C4.28093 43.0294 0 47.5114 0 52.985C0 58.615 4.52767 63.1947 10.0939 63.1947H42.1868L47.5848 68.6546L49.5464 67.7062C49.7214 67.7845 49.8975 67.8594 50.0747 67.9286L50.7969 70H59.1143L59.8366 67.9286C60.0127 67.8582 60.1887 67.7845 60.3648 67.7062L62.3264 68.6546L68.2055 62.708L67.2679 60.7239C67.3453 60.5469 67.4193 60.3688 67.4877 60.1896L69.5357 59.4602V51.0474L67.4877 50.3168C67.418 50.1376 67.3447 49.9599 67.2679 49.7836ZM2.24309 52.985C2.24309 48.6073 5.76585 45.0441 10.0939 45.0441C10.1533 45.0441 10.2105 45.0486 10.2688 45.0532L11.3736 45.1019L11.5855 44.1887C12.2705 41.1999 13.9382 38.5347 16.3156 36.6293C18.6931 34.7239 21.6395 33.6911 24.6728 33.7C29.6828 33.7 34.2474 36.494 36.587 40.992L37.27 42.3056L38.3433 41.2926C40.4136 39.3299 43.1447 38.2377 45.9821 38.2376C48.4023 38.2374 50.7569 39.0337 52.6901 40.5064H50.7958L50.0735 42.5779C49.8975 42.6482 49.7214 42.7219 49.5453 42.8002L47.5837 41.8518L41.7046 47.7984L42.6422 49.7825C42.5647 49.9588 42.4914 50.137 42.4224 50.3168L40.3756 51.0474V59.4602L42.4235 60.1907C42.493 60.3688 42.5659 60.5469 42.6433 60.7251L42.548 60.927H10.0939C5.76585 60.9258 2.24309 57.3627 2.24309 52.985ZM67.2926 57.8539L65.7303 58.4109L65.5553 58.9315C65.4095 59.3649 65.229 59.8016 65.0203 60.2304L64.7803 60.7251L65.497 62.2395L61.861 65.9173L60.3637 65.1924L59.8747 65.4351C59.4586 65.6432 59.0296 65.8239 58.5905 65.9762L58.0757 66.1532L57.5251 67.7334H52.3839L51.8332 66.1532L51.3185 65.9762C50.8794 65.8239 50.4504 65.6432 50.0343 65.4351L49.5453 65.1924L48.048 65.9173L44.412 62.2395L45.1287 60.7251L44.8886 60.2304C44.6829 59.8095 44.5042 59.3757 44.3537 58.9315L44.1787 58.4109L42.6186 57.8539V52.6537L44.181 52.0967L44.3559 51.576C44.5017 51.1427 44.6823 50.7059 44.8909 50.2771L45.1309 49.7825L44.4142 48.2681L48.0503 44.5903L49.5475 45.3152L50.0365 45.0724C50.4527 44.8644 50.8816 44.6836 51.3207 44.5313L51.8355 44.3544L52.3862 42.7741H57.5273L58.078 44.3544L58.5928 44.5313C59.0212 44.6788 59.453 44.8614 59.8769 45.0724L60.3659 45.3152L61.8632 44.5903L65.4992 48.2681L64.7826 49.7825L65.0226 50.2771C65.2312 50.7059 65.4118 51.1427 65.5576 51.576L65.7325 52.0967L67.2926 52.6537V57.8539ZM16.8231 52.0593V41.6408H14.5801V52.0593C13.9259 52.2925 13.3592 52.7247 12.9576 53.2967C12.556 53.8686 12.3392 54.5523 12.337 55.2538C12.337 57.1301 13.8466 58.657 15.7016 58.657C17.5566 58.657 19.0662 57.1301 19.0662 55.2538C19.064 54.5523 18.8472 53.8686 18.4456 53.2967C18.044 52.7247 17.4773 52.2925 16.8231 52.0593ZM15.7016 56.3882C15.4042 56.3882 15.1189 56.2687 14.9086 56.0559C14.6982 55.8432 14.5801 55.5546 14.5801 55.2538C14.5801 54.9529 14.6982 54.6644 14.9086 54.4516C15.1189 54.2389 15.4042 54.1194 15.7016 54.1194C15.9991 54.1194 16.2843 54.2389 16.4947 54.4516C16.705 54.6644 16.8231 54.9529 16.8231 55.2538C16.8231 55.5546 16.705 55.8432 16.4947 56.0559C16.2843 56.2687 15.9991 56.3882 15.7016 56.3882ZM23.5524 44.1184V41.6408H21.3093V44.1184C20.0072 44.588 19.0662 45.8359 19.0662 47.3129C19.0662 48.7899 20.0072 50.0378 21.3093 50.5074V58.657H23.5524V50.5074C24.8545 50.0378 25.7955 48.7899 25.7955 47.3129C25.7955 45.8359 24.8545 44.588 23.5524 44.1184ZM22.4309 48.4473C22.1334 48.4473 21.8481 48.3278 21.6378 48.1151C21.4275 47.9023 21.3093 47.6138 21.3093 47.3129C21.3093 47.012 21.4275 46.7235 21.6378 46.5108C21.8481 46.298 22.1334 46.1785 22.4309 46.1785C22.7283 46.1785 23.0136 46.298 23.2239 46.5108C23.4342 46.7235 23.5524 47.012 23.5524 47.3129C23.5524 47.6138 23.4342 47.9023 23.2239 48.1151C23.0136 48.3278 22.7283 48.4473 22.4309 48.4473ZM32.5248 46.3872V41.6408H30.2817V46.3872C28.9796 46.8569 28.0386 48.1047 28.0386 49.5817C28.0386 51.0587 28.9796 52.3066 30.2817 52.7762V58.657H32.5248V52.7762C33.8269 52.3066 34.7678 51.0587 34.7678 49.5817C34.7678 48.1047 33.8269 46.8569 32.5248 46.3872ZM31.4032 50.7161C31.1058 50.7161 30.8205 50.5966 30.6102 50.3839C30.3998 50.1711 30.2817 49.8826 30.2817 49.5817C30.2817 49.2809 30.3998 48.9923 30.6102 48.7796C30.8205 48.5668 31.1058 48.4473 31.4032 48.4473C31.7007 48.4473 31.9859 48.5668 32.1963 48.7796C32.4066 48.9923 32.5248 49.2809 32.5248 49.5817C32.5248 49.8826 32.4066 50.1711 32.1963 50.3839C31.9859 50.5966 31.7007 50.7161 31.4032 50.7161ZM64.7209 3.40323L70 8.74291L64.7209 14.0826L63.135 12.4785L65.7067 9.87732H50.4694C50.172 9.87732 49.8867 9.99684 49.6764 10.2096C49.4661 10.4223 49.3479 10.7109 49.3479 11.0117V31.4311H47.1048V11.0117C47.1048 9.13542 48.6144 7.6085 50.4694 7.6085H65.7067L63.135 5.00729L64.7209 3.40323ZM42.6186 31.4311V7.6085C42.6186 7.30763 42.5005 7.01909 42.2901 6.80635C42.0798 6.59361 41.7945 6.47409 41.4971 6.47409H8.31512L10.8868 9.07529L9.30096 10.6793L4.02185 5.33967L9.30096 0L10.8868 1.60406L8.31512 4.20526H41.4971C43.3521 4.20526 44.8617 5.73218 44.8617 7.6085V31.4311H42.6186ZM38.1325 33.7V20.087C38.1325 19.7862 38.0143 19.4976 37.804 19.2849C37.5936 19.0721 37.3084 18.9526 37.0109 18.9526H15.0444L17.6161 21.5538L16.0302 23.1579L10.7511 17.8182L16.0302 12.4785L17.6161 14.0826L15.0444 16.6838H37.0109C38.866 16.6838 40.3756 18.2107 40.3756 20.087V33.7H38.1325ZM54.9556 20.087H58.9775L56.4058 17.4858L57.9916 15.8818L63.2707 21.2214L57.9916 26.5611L56.4058 24.9571L58.9775 22.3559H54.9556C54.6582 22.3559 54.3729 22.4754 54.1626 22.6881C53.9522 22.9009 53.8341 23.1894 53.8341 23.4903V33.7H51.591V23.4903C51.591 21.6139 53.1006 20.087 54.9556 20.087Z" fill="url(#paint0_linear_4414_31928)"/>
<defs>
<linearGradient id="paint0_linear_4414_31928" x1="65.9968" y1="6.77531" x2="8.27154" y2="88.7794" gradientUnits="userSpaceOnUse">
<stop offset="0.01" stop-color="#37EBBA"/>
<stop offset="0.68" stop-color="#2FA9C5"/>
<stop offset="1" stop-color="#2C8FC9"/>
</linearGradient>
</defs>
</svg>
