<svg width="70" height="70" viewBox="0 0 70 70" fill="none" xmlns="http://www.w3.org/2000/svg">
<path d="M66.6129 0H3.3871C1.51968 0 0 1.51963 0 3.38699V53.0628C0 54.9302 1.51968 56.4498 3.3871 56.4498H33.871V57.0707C33.871 58.2833 34.1555 59.4992 34.6952 60.5853L37.2581 65.7459V69.9469L57.5806 70V65.8577L59.3871 63.4496C60.4101 62.08 60.9643 60.4172 60.9677 58.7078V56.4498H66.6129C68.4803 56.4498 70 54.9302 70 53.0628V3.38699C70 1.51963 68.4803 0 66.6129 0ZM3.3871 2.25799H66.6129C67.235 2.25799 67.7419 2.76491 67.7419 3.38699V13.548H2.25806V3.38699C2.25806 2.76491 2.765 2.25799 3.3871 2.25799ZM44.0323 27.0959C42.1648 27.0959 40.6452 28.6155 40.6452 30.4829V31.6119H27.0968V20.3219H63.2258V31.6119H47.4194V30.4829C47.4194 28.6155 45.8997 27.0959 44.0323 27.0959ZM40.6452 45.45C39.8627 44.6263 38.9202 43.9713 37.8755 43.5249C36.8308 43.0786 35.7059 42.8504 34.5698 42.8544C34.0663 42.8556 33.5713 42.9851 33.1318 43.2308C32.6922 43.4765 32.3225 43.8303 32.0577 44.2586C31.7929 44.6869 31.6418 45.1757 31.6184 45.6787C31.5951 46.1817 31.7005 46.6824 31.9245 47.1333L33.1969 49.6758H27.0968V38.3859H40.6452V45.45ZM58.7097 58.7078C58.7074 59.9288 58.3115 61.1166 57.5806 62.0948L55.3226 65.1058V67.7375L39.5161 67.6946V65.2164L36.7173 59.5805C36.3312 58.8001 36.1299 57.9414 36.129 57.0707V52.4328C36.1276 51.1558 35.8304 49.8964 35.2608 48.7534L33.9455 46.1229C33.8967 46.0258 33.8712 45.9188 33.871 45.8101C33.871 45.4252 34.1848 45.1124 34.6771 45.1124C36.2596 45.1142 37.7767 45.7437 38.8956 46.8627C40.0145 47.9818 40.6437 49.499 40.6452 51.0814V55.2734H42.9032V30.4829C42.9032 29.8608 43.4102 29.3539 44.0323 29.3539C44.6544 29.3539 45.1613 29.8608 45.1613 30.4829V48.5468H47.4194V44.0308C47.4194 43.4088 47.9263 42.9018 48.5484 42.9018C49.1705 42.9018 49.6774 43.4088 49.6774 44.0308V48.5468H51.9355V44.0308C51.9355 43.4088 52.4424 42.9018 53.0645 42.9018C53.6866 42.9018 54.1936 43.4088 54.1936 44.0308V48.5468H56.4516V46.2888C56.4516 45.6668 56.9585 45.1598 57.5806 45.1598C58.2027 45.1598 58.7097 45.6668 58.7097 46.2888V58.7078ZM57.5806 42.9018C57.1347 42.9018 56.7113 42.9933 56.3206 43.1502C56.1285 42.4329 55.7055 41.7987 55.117 41.3457C54.5285 40.8927 53.8072 40.6461 53.0645 40.6439C52.2286 40.6467 51.4236 40.9606 50.8064 41.5245C50.1895 40.9602 49.3844 40.6463 48.5484 40.6439C48.151 40.6439 47.7739 40.7251 47.4194 40.8516V38.3859H63.2258V49.6758H60.9677V46.2888C60.9677 44.4215 59.4481 42.9018 57.5806 42.9018ZM66.6129 54.1918H60.9677V51.9338H65.4839V36.1279H47.4194V33.8699H65.4839V18.0639H24.8387V33.8699H40.6452V36.1279H24.8387V51.9338H33.8416C33.8563 52.0998 33.871 52.2669 33.871 52.4328V54.1918H3.3871C2.765 54.1918 2.25806 53.6849 2.25806 53.0628V15.8059H67.7419V53.0628C67.7419 53.6849 67.235 54.1918 66.6129 54.1918ZM11.2903 4.51598H4.51613V11.29H11.2903V4.51598ZM9.03226 9.03197H6.77419V6.77398H9.03226V9.03197ZM20.3226 4.51598H13.5484V11.29H20.3226V4.51598ZM18.0645 9.03197H15.8065V6.77398H18.0645V9.03197ZM29.3548 4.51598H22.5806V11.29H29.3548V4.51598ZM27.0968 9.03197H24.8387V6.77398H27.0968V9.03197ZM31.6129 24.8379H29.3548V22.5799H31.6129V24.8379ZM60.9677 24.8379H33.871V22.5799H60.9677V24.8379ZM49.6774 27.0959H60.9677V29.3539H49.6774V27.0959ZM29.3548 27.0959H38.3871V29.3539H29.3548V27.0959ZM6.77419 33.8699H22.5806V18.0639H6.77419V33.8699ZM9.03226 20.3219H20.3226V31.6119H9.03226V20.3219ZM18.3953 21.7817L19.9918 23.3781L13.5484 29.8213L10.4921 26.7651L12.0885 25.1687L13.5484 26.6285L18.3953 21.7817ZM6.77419 51.9338H22.5806V36.1279H6.77419V51.9338ZM9.03226 38.3859H20.3226V49.6758H9.03226V38.3859ZM18.3953 39.8456L19.9918 41.4421L13.5484 47.8852L10.4921 44.829L12.0885 43.2326L13.5484 44.6924L18.3953 39.8456Z" fill="url(#paint0_linear_4414_31926)"/>
<defs>
<linearGradient id="paint0_linear_4414_31926" x1="65.9968" y1="6.77531" x2="8.27154" y2="88.7794" gradientUnits="userSpaceOnUse">
<stop offset="0.01" stop-color="#37EBBA"/>
<stop offset="0.68" stop-color="#2FA9C5"/>
<stop offset="1" stop-color="#2C8FC9"/>
</linearGradient>
</defs>
</svg>
