<svg width="71" height="70" viewBox="0 0 71 70" fill="none" xmlns="http://www.w3.org/2000/svg">
<path d="M31.1034 53.8426C30.3217 53.0951 29.0548 53.0951 28.2716 53.8426C27.4899 54.59 27.4899 55.8031 28.2716 56.5506L29.5225 57.7469H6.80721C5.26157 57.7469 4.00424 56.5445 4.00424 55.0664V39.5962C4.00424 38.1181 5.26157 36.9157 6.80721 36.9157H19.3805V38.6772C19.3805 42.3517 22.5054 45.3401 26.3479 45.3401H43.6462C47.4887 45.3401 50.6136 42.3517 50.6136 38.6772V31.325C50.6136 27.6505 47.4887 24.6621 43.6462 24.6621H26.3479C22.5054 24.6621 19.3805 27.6505 19.3805 31.325V33.0865H6.80721C3.05444 33.0865 0 36.0074 0 39.5962V55.0664C0 58.6552 3.05444 61.5761 6.80721 61.5761H29.5225L28.2716 62.7724C27.4899 63.5198 27.4899 64.7329 28.2716 65.4804C28.6624 65.8542 29.1749 66.041 29.6875 66.041C30.2 66.041 30.7125 65.8542 31.1034 65.4804L35.7723 61.0155C36.5539 60.268 36.5539 59.0549 35.7723 58.3075L31.1034 53.8426ZM23.3848 31.325C23.3848 29.7627 24.7142 28.4914 26.3479 28.4914H43.6462C45.28 28.4914 46.6094 29.7627 46.6094 31.325V38.6772C46.6094 40.2395 45.28 41.5108 43.6462 41.5108H26.3479C24.7142 41.5108 23.3848 40.2395 23.3848 38.6772V31.325Z" fill="url(#paint0_linear_4414_31932)"/>
<path d="M63.1869 8.42436H31.2331V6.6629C31.2331 2.98835 28.1082 0 24.2657 0H6.96738C3.12491 0 0 2.98835 0 6.6629V14.0151C0 17.6896 3.12491 20.678 6.96738 20.678H24.2657C28.1082 20.678 31.2331 17.6896 31.2331 14.0151V12.2536H63.1869C64.7326 12.2536 65.9899 13.456 65.9899 14.9341V30.4043C65.9899 31.8824 64.7326 33.0848 63.1869 33.0848H59.8522L61.1031 31.8885C61.8848 31.141 61.8848 29.9279 61.1031 29.1804C60.3215 28.433 59.053 28.433 58.2713 29.1804L53.6024 33.6454C52.8208 34.3928 52.8208 35.6059 53.6024 36.3534L58.2713 40.8183C58.6621 41.192 59.1747 41.3789 59.6872 41.3789C60.1998 41.3789 60.7123 41.192 61.1031 40.8183C61.8848 40.0708 61.8848 38.8577 61.1031 38.1103L59.8522 36.914H63.1869C66.9397 36.914 69.9942 33.993 69.9942 30.4043V14.9341C69.9942 11.3453 66.9397 8.42436 63.1869 8.42436ZM27.2288 14.0151C27.2288 15.5774 25.8994 16.8487 24.2657 16.8487H6.96738C5.33365 16.8487 4.00424 15.5774 4.00424 14.0151V6.6629C4.00424 5.10057 5.33365 3.82925 6.96738 3.82925H24.2657C25.8994 3.82925 27.2288 5.10057 27.2288 6.6629V14.0151Z" fill="url(#paint1_linear_4414_31932)"/>
<path d="M15.6182 14.1641C17.8279 14.1641 19.6193 12.4511 19.6193 10.3379C19.6193 8.22476 17.8279 6.51172 15.6182 6.51172C13.4085 6.51172 11.6172 8.22476 11.6172 10.3379C11.6172 12.4511 13.4085 14.1641 15.6182 14.1641Z" fill="url(#paint2_linear_4414_31932)"/>
<path d="M35.001 38.8243C37.2108 38.8243 39.0021 37.1112 39.0021 34.9981C39.0021 32.8849 37.2108 31.1719 35.001 31.1719C32.7913 31.1719 31 32.8849 31 34.9981C31 37.1112 32.7913 38.8243 35.001 38.8243Z" fill="url(#paint3_linear_4414_31932)"/>
<path d="M63.0352 49.3223H45.7369C41.8944 49.3223 38.7695 52.3106 38.7695 55.9852V63.3373C38.7695 67.0119 41.8944 70.0002 45.7369 70.0002H63.0352C66.8777 70.0002 70.0026 67.0119 70.0026 63.3373V55.9852C70.0026 52.3106 66.8777 49.3223 63.0352 49.3223ZM65.9984 63.3373C65.9984 64.8997 64.669 66.171 63.0352 66.171H45.7369C44.1032 66.171 42.7738 64.8997 42.7738 63.3373V55.9852C42.7738 54.4228 44.1032 53.1515 45.7369 53.1515H63.0352C64.669 53.1515 65.9984 54.4228 65.9984 55.9852V63.3373Z" fill="url(#paint4_linear_4414_31932)"/>
<path d="M54.3878 63.4844C56.5975 63.4844 58.3888 61.7714 58.3888 59.6582C58.3888 57.5451 56.5975 55.832 54.3878 55.832C52.178 55.832 50.3867 57.5451 50.3867 59.6582C50.3867 61.7714 52.178 63.4844 54.3878 63.4844Z" fill="url(#paint5_linear_4414_31932)"/>
<defs>
<linearGradient id="paint0_linear_4414_31932" x1="47.7191" y1="28.6672" x2="16.3784" y2="83.1259" gradientUnits="userSpaceOnUse">
<stop offset="0.01" stop-color="#37EBBA"/>
<stop offset="0.68" stop-color="#2FA9C5"/>
<stop offset="1" stop-color="#2C8FC9"/>
</linearGradient>
<linearGradient id="paint1_linear_4414_31932" x1="65.9913" y1="4.00507" x2="40.276" y2="65.7988" gradientUnits="userSpaceOnUse">
<stop offset="0.01" stop-color="#37EBBA"/>
<stop offset="0.68" stop-color="#2FA9C5"/>
<stop offset="1" stop-color="#2C8FC9"/>
</linearGradient>
<linearGradient id="paint2_linear_4414_31932" x1="19.1616" y1="7.25239" x2="12.951" y2="16.4784" gradientUnits="userSpaceOnUse">
<stop offset="0.01" stop-color="#37EBBA"/>
<stop offset="0.68" stop-color="#2FA9C5"/>
<stop offset="1" stop-color="#2C8FC9"/>
</linearGradient>
<linearGradient id="paint3_linear_4414_31932" x1="38.5445" y1="31.9125" x2="32.3338" y2="41.1386" gradientUnits="userSpaceOnUse">
<stop offset="0.01" stop-color="#37EBBA"/>
<stop offset="0.68" stop-color="#2FA9C5"/>
<stop offset="1" stop-color="#2C8FC9"/>
</linearGradient>
<linearGradient id="paint4_linear_4414_31932" x1="68.2164" y1="51.3237" x2="54.3457" y2="81.0868" gradientUnits="userSpaceOnUse">
<stop offset="0.01" stop-color="#37EBBA"/>
<stop offset="0.68" stop-color="#2FA9C5"/>
<stop offset="1" stop-color="#2C8FC9"/>
</linearGradient>
<linearGradient id="paint5_linear_4414_31932" x1="57.9312" y1="56.5727" x2="51.7205" y2="65.7987" gradientUnits="userSpaceOnUse">
<stop offset="0.01" stop-color="#37EBBA"/>
<stop offset="0.68" stop-color="#2FA9C5"/>
<stop offset="1" stop-color="#2C8FC9"/>
</linearGradient>
</defs>
</svg>
